<svg xmlns="http://www.w3.org/2000/svg" viewBox="2.68231 16.1879 94.81 67.46">
	<path d="M70.3,50.1C55.8,66,45.3,66.2,31,66.5c-2.5,0-5.2,0.1-8,0.2C4.6,67.7,2.8,59.1,2.8,59c0,0-0.4-1.4,1.1-3.3   c6-7.2,7.6-8.2,8.1-8.2c0.1,0,0.2,0,0.2,0.1l0.1,0.1c0,0,0.1,0.1,0.2,0.3c0.1,0.6,0.9,3.5,3.6,6.1c3.5,3.4,8.5,5.1,15,5.1   c8.4,0,19.1-2.9,31.8-8.6c0.1,0,2.2-1.1,4.5-1.1C67.6,49.5,69.7,49.8,70.3,50.1z M76,59.7c-0.6-1.8-3.7-6.9-4.6-7.5   C56.4,68.6,45.3,68.8,31.3,69c-2.5,0-5.2,0.1-7.9,0.2c-1,0-1.9,0.1-2.8,0.1c-12.8,0-16.7-4.7-17.9-7.2c-0.2,3.8,1.3,8.4,4.3,13.1   c2.5,3.7,6,4.7,8.6,4.5c2.7-0.2,4.1-1.4,6.6-1.8c2.7-0.4,6.1,2.4,6.1,2.4c2.7,1.9,7.5,4.1,15.5,3.1C62.4,81.2,76.7,62,76,59.7z    M96.7,19.8c-3.7-7.7-21.7-1-25.3,1c-4.2,2.3-12.9,1.5-12.9,1.5c-19.4-5-36.7,15-43,21.9c-2.3,2.5-1.6,3.7-0.5,5.5   c0.3,0.5,0.7,0.9,1.2,1C18,51,39.5,23,56.3,26.7c0.6,0.1,11.2,1.1,15.5-1.6c5-3.1,19.3-9.3,22.1-4.4c1.9,2.9-3.3,10.5-9.3,16.8   C79.5,43,72.1,49.7,72.1,49.7s1.2,1.9,1.7,2.5c0.3,0.4,3.7,6.2,3.7,6.2s18.3-22.8,19.7-32.7v-0.1l0-0.1c0-0.3,0.1-0.5,0.1-0.8   C97.4,24.8,97.9,22.4,96.7,19.8z" fill="#ffff"/>
</svg>