<?xml version="1.0" encoding="utf-8"?>
<!-- Generator: Adobe Illustrator 26.0.1, SVG Export Plug-In . SVG Version: 6.00 Build 0)  -->
<svg version="1.1" id="Layer_1" xmlns="http://www.w3.org/2000/svg" xmlns:xlink="http://www.w3.org/1999/xlink" x="0px" y="0px"
	 viewBox="0 0 375.9 69.8" style="enable-background:new 0 0 375.9 69.8;" xml:space="preserve">
<style type="text/css">
	.st0{fill:#011640;}
</style>
<g>
	<path class="st0" d="M93,25.7l-3.6,4.4c-1.9-2.2-4.6-3.6-7.1-3.6c-4.7,0-8.4,3.7-8.4,8.4c0,4.8,3.7,8.5,8.4,8.5
		c2.5,0,5.2-1.3,7.1-3.2l3.7,4c-2.9,3-7.1,4.9-11.1,4.9c-8.2,0-14.4-6.1-14.4-14.1c0-7.9,6.3-13.9,14.6-13.9
		C86.1,21.1,90.3,22.9,93,25.7z"/>
	<path class="st0" d="M101.1,26.5v6h13.3v5.1h-13.3v6.1h15.1v5.1H94.9V21.3h20.9v5.1H101.1z"/>
	<path class="st0" d="M138.5,48.8l-13.3-17.6v17.6h-5.9V21.3h5.7L138.3,39V21.3h5.9v27.5H138.5z"/>
	<path class="st0" d="M160.3,26.6v22.2h-6.2V26.6h-8.4v-5.3h23v5.3H160.3z"/>
	<path class="st0" d="M176.4,26.5v6h13.3v5.1h-13.3v6.1h15.1v5.1h-21.4V21.3h20.9v5.1H176.4z"/>
	<path class="st0" d="M207.1,41h-0.6h-5.7v7.8h-6.2V21.3h11.9c7.2,0,11.3,3.5,11.3,9.5c0,4.2-1.8,7.3-5.1,8.9l5.8,9.1h-7L207.1,41z
		 M206.6,35.8c3.4,0,5.4-1.6,5.4-4.7c0-3.1-2-4.6-5.4-4.6h-5.7v9.3H206.6z"/>
	<path class="st0" d="M252.5,25.3l-1.9,2.4c-2.1-2.2-5.1-3.5-8.1-3.5c-6.2,0-11.2,4.8-11.2,10.8c0,6,5,10.8,11.2,10.8
		c3,0,6-1.3,8.1-3.3l1.9,2.2c-2.7,2.6-6.4,4.2-10.2,4.2c-7.9,0-14.2-6.2-14.2-13.9c0-7.7,6.4-13.8,14.3-13.8
		C246.2,21.3,249.8,22.8,252.5,25.3z"/>
	<path class="st0" d="M258.6,41.9l-3.1,6.9h-3.3l12.3-27.5h3.3l12.3,27.5h-3.4l-3.1-6.9H258.6z M266.1,24.9L260,38.8h12.3
		L266.1,24.9z"/>
	<path class="st0" d="M292.9,21.3c6.8,0,10.7,3.4,10.7,9.2c0,6.1-3.9,9.6-10.7,9.6h-7.2v8.7h-3.1V21.3H292.9z M285.8,37.1h7.1
		c4.9,0,7.8-2.2,7.8-6.5c0-4.2-2.9-6.3-7.8-6.3h-7.1V37.1z"/>
	<path class="st0" d="M307.1,48.8V21.3h3.1v27.5H307.1z"/>
	<path class="st0" d="M325.1,24.4v24.5h-3.1V24.4H313v-3h21.1v3H325.1z"/>
	<path class="st0" d="M336.7,41.9l-3.1,6.9h-3.3l12.3-27.5h3.3l12.3,27.5h-3.4l-3.1-6.9H336.7z M344.1,24.9L338,38.8h12.3
		L344.1,24.9z"/>
	<path class="st0" d="M375.8,45.8v3h-15.2V21.3h3.1v24.5H375.8z"/>
</g>
<g>
	<path class="st0" d="M52.7,42.4c0,2.9-2.2,5.4-5.1,5.7l0,0c-0.1,0-0.2,0-0.3,0c-0.1,0-0.3,0-0.4,0H26.8c-0.1,0-0.3,0-0.4,0
		c-3.2-0.2-5.7-2.7-6-5.9c0-0.2,0-0.3,0-0.5v-3.1h0v-0.7c0-3,0-6,0-9c0-0.5,0.2-0.9,0.7-1.2c2.6-1.8,5.2-3.6,7.9-5.4
		c2.2-1.5,4.4-3,6.7-4.6c0.6-0.4,1.1-0.4,1.7,0c2.6,1.7,5.2,3.4,7.7,5.1c2.5,1.7,5,3.3,7.5,5v0l13-15.4c-7-7.6-18.3-12.4-28.7-12.4
		C15.6,0.1,0.1,14.6,0.1,34.6c0,20.2,15.1,35.1,35.9,35.1c10.5,0,22-5.3,29.5-13.6L52.7,42.4L52.7,42.4z"/>
	<path class="st0" d="M41,39.7h-9.2c-0.2,0-0.4-0.2-0.4-0.4v-7.1c0-1.5,1.2-2.8,2.8-2.8h4.4c1.5,0,2.8,1.2,2.8,2.8v7.1
		C41.4,39.6,41.2,39.7,41,39.7z"/>
</g>
</svg>
